<?xml version="1.0" encoding="iso-8859-1"?>
<!-- Uploaded to: SVG Repo, www.svgrepo.com, Generator: SVG Repo Mixer Tools -->
<svg height="800px" width="800px" version="1.1" id="Layer_1" xmlns="http://www.w3.org/2000/svg" xmlns:xlink="http://www.w3.org/1999/xlink" 
	 viewBox="0 0 512 512" xml:space="preserve">
<g>
	<g>
		<path style="fill:#C69C18;" d="M421.258,263.405c-9.26,22.042-23.261,41.702-40.739,57.874
			c-27.639,28.381-65.218,46.91-107.132,50.123L312.979,501.9c3.902,12.844,22.404,13.647,27.498,1.201l23.861-58.377
			c6.294-15.404,25.909-20.957,39.821-11.282l56.973,39.68c9.843,6.859,23.093-2.198,19.677-13.444L421.258,263.405z"/>
		<path style="fill:#C69C18;" d="M136,316.543c-15.21-15.236-27.533-33.183-35.911-53.142L40.538,459.674
			c-3.416,11.255,9.834,20.312,19.677,13.453l56.973-39.68c13.903-9.684,33.527-4.131,39.821,11.273l23.852,58.386
			c5.085,12.447,23.605,11.635,27.498-1.209l39.592-130.463C203.566,368.158,164.089,347.66,136,316.543"/>
	</g>
	<path style="fill:#F0C419;" d="M428.137,211.858c0,92.637-75.096,167.724-167.724,167.724S92.689,304.494,92.689,211.858
		c0-92.628,75.096-167.724,167.724-167.724S428.137,119.23,428.137,211.858"/>
	<g>
		<path style="fill:#F29C1F;" d="M39.698,44.138c3.354,2.516,6.338,5.508,8.854,8.854c2.516-3.346,5.5-6.338,8.854-8.854
			c-3.354-2.516-6.338-5.508-8.854-8.854C46.036,38.63,43.053,41.622,39.698,44.138 M48.552,88.276
			c-4.882,0-8.828-3.955-8.828-8.828c0-14.601-11.882-26.483-26.483-26.483c-4.882,0-8.828-3.955-8.828-8.828
			s3.946-8.828,8.828-8.828c14.601,0,26.483-11.882,26.483-26.483C39.725,3.955,43.67,0,48.552,0s8.828,3.955,8.828,8.828
			c0,14.601,11.882,26.483,26.483,26.483c4.882,0,8.828,3.955,8.828,8.828s-3.946,8.828-8.828,8.828
			c-14.601,0-26.483,11.882-26.483,26.483C57.38,84.321,53.434,88.276,48.552,88.276"/>
		<path style="fill:#F29C1F;" d="M481.103,176.552c-4.882,0-8.828-3.955-8.828-8.828v-35.31c0-4.873,3.946-8.828,8.828-8.828
			c4.882,0,8.828,3.955,8.828,8.828v35.31C489.931,172.597,485.985,176.552,481.103,176.552"/>
		<path style="fill:#F29C1F;" d="M498.758,158.897h-35.31c-4.882,0-8.828-3.955-8.828-8.828c0-4.873,3.946-8.828,8.828-8.828h35.31
			c4.882,0,8.828,3.955,8.828,8.828C507.586,154.942,503.64,158.897,498.758,158.897"/>
		<path style="fill:#F29C1F;" d="M30.896,229.517c0,4.873-3.946,8.828-8.828,8.828s-8.828-3.955-8.828-8.828
			s3.946-8.828,8.828-8.828S30.896,224.644,30.896,229.517"/>
		<path style="fill:#F29C1F;" d="M384,211.858c0,68.255-55.34,123.586-123.586,123.586s-123.586-55.331-123.586-123.586
			c0-68.246,55.34-123.586,123.586-123.586S384,143.612,384,211.858"/>
	</g>
	<g>
		<path style="fill:#FFFFFF;" d="M260.672,283.09c-24.338,0-44.138-19.8-44.138-44.138c0-4.873,3.946-8.828,8.828-8.828
			c4.882,0,8.828,3.955,8.828,8.828c0,14.601,11.882,26.483,26.483,26.483c7.812,0,15.183-3.425,20.224-9.384
			c2.269-2.684,3.302-6.144,2.931-9.754c-0.406-3.884-2.401-7.486-5.491-9.887l-46.168-35.911
			c-6.859-5.332-11.317-13.347-12.209-21.981c-0.883-8.439,1.598-16.605,7-22.987c8.413-9.94,20.701-15.642,33.713-15.642
			c24.338,0,44.138,19.8,44.138,44.138c0,4.873-3.946,8.828-8.828,8.828s-8.828-3.955-8.828-8.828
			c0-14.601-11.882-26.483-26.483-26.483c-7.812,0-15.183,3.425-20.233,9.393c-2.269,2.675-3.302,6.135-2.922,9.746
			c0.406,3.884,2.401,7.477,5.491,9.878l46.168,35.911c6.859,5.341,11.317,13.356,12.209,21.998
			c0.883,8.439-1.607,16.596-7.009,22.978C285.972,277.387,273.684,283.09,260.672,283.09"/>
		<path style="fill:#FFFFFF;" d="M260.413,300.138h-0.053c-4.873-0.026-8.801-4.008-8.775-8.881l0.256-45.489l-0.256-113.346
			c-0.009-4.873,3.928-8.836,8.81-8.845h0.018c4.864,0,8.819,3.937,8.828,8.81l0.256,113.408l-0.256,45.568
			C269.214,296.218,265.268,300.138,260.413,300.138"/>
	</g>
</g>
</svg>